<?xml version="1.0" encoding="utf-8"?>
<!-- Generator: Adobe Illustrator 16.0.0, SVG Export Plug-In . SVG Version: 6.00 Build 0)  -->
<svg version="1.2" baseProfile="tiny" id="Layer_1" xmlns="http://www.w3.org/2000/svg" xmlns:xlink="http://www.w3.org/1999/xlink"
	 x="0px" y="0px"   viewBox="0 0 3000 3000" xml:space="preserve">
<title>Mendix Logo</title>
<g id="Layer_1_1_">
</g>
<g id="Layer_2">
	<path fill="#0595DB" d="M808.848,1963.773H128.715c-68.114,0-123.707-55.592-123.707-123.707v-680.132
		c0-68.114,55.593-123.707,123.707-123.707h680.133c68.114,0,123.707,55.593,123.707,123.707v680.132
		C933.055,1908.182,876.962,1963.773,808.848,1963.773z"/>
	<g>
		<polygon fill="#333333" points="2994.992,1332.221 2895.325,1332.221 2857.763,1407.847 2820.2,1332.221 2720.534,1332.221 
			2805.676,1500 2720.534,1667.779 2820.2,1667.779 2857.763,1592.154 2895.325,1667.779 2994.992,1667.779 2909.85,1500 		"/>
	</g>
	<path fill="#333333" d="M1780.969,1580.135c-0.501,14.023-11.52,25.541-25.543,30.049c-0.501,0-1.002,0-1.502,0.502
		c-3.506,1.002-7.012,1.502-10.518,1.502c-20.034,0-34.559-9.516-37.563-31.553c-3.006-22.537-3.006-64.607-3.006-64.607h177.296
		c0-26.043,2.003-50.083-0.501-72.622c-2.504-22.036-8.515-41.569-17.529-57.596c-9.516-16.026-23.539-29.049-42.07-38.564
		s-44.073-14.023-75.626-14.023c-31.052,0-56.094,4.508-74.123,13.021c-18.531,9.016-32.054,20.535-41.569,35.56
		c-9.516,15.025-15.526,32.555-18.03,52.087c-2.504,20.033-4.007,41.068-4.007,63.105c0,25.042,1.503,48.581,4.508,69.616
		s9.015,39.566,18.531,54.592c9.516,15.023,23.539,27.045,41.568,35.559c18.03,8.514,42.571,13.021,73.122,13.021
		c22.037,0,41.569-3.004,58.097-8.514s30.551-13.021,41.569-23.039c22.538-19.531,36.061-44.574,36.061-71.619h-99.165
		C1780.969,1566.111,1781.469,1570.617,1780.969,1580.135z M1706.344,1424.875c2.004-20.034,17.028-36.061,37.563-36.061
		c20.535,0,35.56,13.021,37.563,36.061c1.503,20.534,1.002,22.537,0.501,40.066h-78.13
		C1704.842,1438.899,1704.842,1439.4,1706.344,1424.875z"/>
	<path fill="#333333" d="M1553.59,1373.29c-5.009-8.515-11.52-16.027-19.533-22.037s-17.529-10.518-28.047-14.023
		c-11.018-3.005-22.036-5.008-34.057-5.008c-20.534,0-38.564,3.506-53.088,10.017c-14.524,6.511-27.546,17.028-39.566,31.052
		c-8.014-13.022-19.031-23.039-32.554-30.051s-29.55-11.018-47.079-11.018c-19.031,0-35.059,3.005-48.58,8.514
		c-13.523,6.01-25.543,16.026-35.059,30.551h-1.503v-39.064h-99.666v335.058h99.666v-223.373c0-0.501,0-1.502,0-2.003v-16.027l0,0
		c0-20.033,17.028-36.06,37.563-36.06s37.062,16.026,37.563,36.06l0,0v16.528l0,0c0,0.5,0,1.001,0,1.502v223.373h97.162h2.003
		v-169.282v-50.585v-4.007v-14.023v-2.504l0,0c0-20.033,17.029-36.06,37.563-36.06c20.535,0,37.063,16.026,37.563,36.06l0,0v16.527
		v224.374h99.667v-169.282v-51.085v-25.042v-14.523C1563.105,1396.829,1558.598,1382.304,1553.59,1373.29z"/>
	<path fill="#FFFFFF" d="M834.391,1332.221h-99.666l-37.563,75.626l-37.563-75.626h-99.666L645.075,1500l-77.129,151.753v-152.755
		v-51.586v-25.042v-14.523c0-11.019-4.507-26.044-9.516-34.558c-5.009-8.515-11.52-16.027-19.532-22.037
		c-8.014-6.01-17.529-10.518-28.047-14.023c-11.019-3.005-22.037-5.008-34.057-5.008c-20.534,0-38.564,3.506-53.089,10.017
		s-27.546,17.028-39.565,31.052c-8.014-13.022-19.032-23.039-32.555-30.051c-13.522-7.512-29.549-11.018-47.078-11.018
		c-19.032,0-35.059,3.005-48.581,8.514c-13.522,6.01-25.543,16.026-35.059,30.551h-1.503v-39.064h-99.666v335.558h99.666v-223.372
		c0-0.501,0-1.503,0-2.003v-16.027l0,0c0-20.033,17.028-36.06,37.563-36.06s37.063,16.026,37.563,36.06l0,0v16.528l0,0
		c0,0.5,0,1.001,0,1.502v223.372h97.161h2.004v-168.781v-51.586v-4.007v-14.023v-2.504l0,0c0-20.033,17.028-36.06,37.563-36.06
		s37.062,16.026,37.563,36.06l0,0v16.527v224.374h91.152l0,0H659.6l37.563-75.625l37.563,75.625h99.666L749.249,1500
		L834.391,1332.221z"/>
	<path fill="#333333" d="M2192.153,1373.29c-5.008-8.515-11.519-16.027-19.532-22.037s-17.529-10.518-28.047-14.023
		c-11.019-3.005-22.037-5.008-34.057-5.008c-19.532,0-35.559,3.005-48.581,9.015c-14.023,6.01-26.043,16.026-35.059,30.05h-1.502
		v-39.064h-99.666v335.058h99.666v-227.88c0-1.001,0-2.003,0-3.005v-10.017l0,0c0-20.033,17.028-36.06,37.563-36.06
		s37.062,16.026,37.563,36.06l0,0v13.021v3.506v224.375h99.666v-264.441C2199.666,1392.321,2197.162,1382.304,2192.153,1373.29z"/>
	<g>
		<path fill="#333333" d="M2518.197,1283.139c0-46.578-39.065-85.142-89.148-89.649c-3.506-0.501-6.512-0.501-10.018-0.501v7.513
			v84.14v73.122c-8.514-9.015-17.529-15.525-27.545-19.532c-13.523-5.509-29.049-8.515-47.58-8.515
			c-25.542,0-45.576,5.51-59.098,17.028c-14.023,11.52-23.54,25.543-30.051,43.072c-6.01,17.028-9.516,36.06-10.017,56.094
			c-0.501,16.026-1.002,30.551-1.002,44.073l0,0c0,3.506,0,7.012,0,10.518c0,17.027,0.501,36.059,1.002,56.594
			c1.002,20.533,4.007,39.566,10.017,57.096s16.027,32.553,30.051,44.072c14.022,12.021,34.557,18.031,61.102,18.031
			c20.033,0,37.062-3.006,51.085-9.516c8.014-3.506,15.025-8.516,21.536-15.527v17.029h15.525h84.141v-263.94v-80.635v-38.564l0,0
			C2518.197,1284.141,2518.197,1283.64,2518.197,1283.139z M2419.031,1441.904v126.209v4.508v2.504v10.518
			c-1.001,14.525-11.018,26.545-25.041,31.053c-3.506,1.502-7.012,2.004-11.019,2.004h-0.501h-0.501
			c0,0-47.078,9.014-47.078-115.693c0-59.6,11.019-88.648,22.036-102.671c1.002-1.503,2.505-3.005,3.506-4.508
			c2.004-2.003,4.007-3.506,6.011-4.007c8.514-5.509,15.525-4.007,15.525-4.007c6.511,0,12.521,2.004,18.03,5.009
			c0.501,0,0.501,0.501,1.002,0.501c11.019,6.511,18.531,18.53,18.531,32.554c0,1.503,0,2.505,0,4.007v12.021H2419.031z"/>
	</g>
	<g>
		<path fill="#333333" d="M2678.464,1436.394v231.385h-99.666v-335.558h99.666v34.057V1436.394z"/>
		<path fill="#333333" d="M2662.938,1283.139h-68.113c-8.515,0-15.526-7.012-15.526-15.526v-59.099
			c0-8.514,7.012-15.525,15.526-15.525h68.113c8.515,0,15.525,7.012,15.525,15.525v59.099
			C2678.464,1276.127,2671.453,1283.139,2662.938,1283.139z"/>
	</g>
</g>
</svg>
